# File units = meters
mtllib square_pot.mtl
g Part 1
usemtl 0.615686_0.811765_0.929412_0.000000_0.000000
o mesh0
v 0.1 0.1 0 
v 0.1 -0.1 0 
v -0.1 -0.1 0 
v -0.1 0.1 0 
vn 0 0 -1 
vn 0 0 -1 
vn 0 0 -1 
vn 0 0 -1 
f 1//1 2//2 3//3 
f 3//3 4//4 1//1 
o mesh1
v -0.1 -0.1 0.05 
v -0.1 -0.1 0 
v 0.1 -0.1 0 
v 0.1 -0.1 0.05 
vn 1.38778e-16 -1 0 
vn 1.38778e-16 -1 0 
vn 1.38778e-16 -1 0 
vn 1.38778e-16 -1 0 
f 5//5 6//6 7//7 
f 7//7 8//8 5//5 
o mesh2
v 0.1 -0.1 0.05 
v 0.1 -0.1 0 
v 0.1 0.1 0 
v 0.1 0.1 0.05 
vn 1 0 0 
vn 1 0 0 
vn 1 0 0 
vn 1 0 0 
f 9//9 10//10 11//11 
f 11//11 12//12 9//9 
o mesh3
v 0.1 0.1 0.05 
v 0.1 0.1 0 
v -0.1 0.1 0 
v -0.1 0.1 0.05 
vn 0 1 0 
vn 0 1 0 
vn 0 1 0 
vn 0 1 0 
f 13//13 14//14 15//15 
f 15//15 16//16 13//13 
o mesh4
v -0.1 0.1 0.05 
v -0.1 0.1 0 
v -0.1 -0.1 0 
v -0.1 -0.1 0.05 
vn -1 0 0 
vn -1 0 0 
vn -1 0 0 
vn -1 0 0 
f 17//17 18//18 19//19 
f 19//19 20//20 17//17 
o mesh5
v 0.1 -0.1 0.05 
v 0.1 0.1 0.05 
v 0.09 0.09 0.05 
v -0.1 0.1 0.05 
v -0.09 0.09 0.05 
v -0.1 -0.1 0.05 
v -0.09 -0.09 0.05 
v 0.09 -0.09 0.05 
vn 0 0 1 
vn 0 0 1 
vn 0 0 1 
vn 0 0 1 
vn 0 0 1 
vn 0 0 1 
vn 0 0 1 
vn 0 0 1 
f 21//21 22//22 23//23 
f 22//22 24//24 25//25 
f 25//25 23//23 22//22 
f 24//24 26//26 27//27 
f 27//27 25//25 24//24 
f 26//26 21//21 28//28 
f 28//28 27//27 26//26 
f 23//23 28//28 21//21 
o mesh6
v -0.09 -0.09 0.05 
v 0.09 -0.09 0.05 
v 0.09 -0.09 0.001 
v -0.09 -0.09 0.001 
vn -1.54198e-16 1 0 
vn -1.54198e-16 1 0 
vn -1.54198e-16 1 0 
vn -1.54198e-16 1 0 
f 29//29 30//30 31//31 
f 31//31 32//32 29//29 
o mesh7
v 0.09 0.09 0.05 
v 0.09 0.09 0.001 
v 0.09 -0.09 0.001 
v 0.09 -0.09 0.05 
vn -1 -1.54198e-16 0 
vn -1 -1.54198e-16 0 
vn -1 -1.54198e-16 0 
vn -1 -1.54198e-16 0 
f 33//33 34//34 35//35 
f 35//35 36//36 33//33 
o mesh8
v -0.09 0.09 0.05 
v -0.09 0.09 0.001 
v 0.09 0.09 0.001 
v 0.09 0.09 0.05 
vn 1.54198e-16 -1 0 
vn 1.54198e-16 -1 0 
vn 1.54198e-16 -1 0 
vn 1.54198e-16 -1 0 
f 37//37 38//38 39//39 
f 39//39 40//40 37//37 
o mesh9
v -0.09 0.09 0.05 
v -0.09 -0.09 0.05 
v -0.09 -0.09 0.001 
v -0.09 0.09 0.001 
vn 1 1.54198e-16 0 
vn 1 1.54198e-16 0 
vn 1 1.54198e-16 0 
vn 1 1.54198e-16 0 
f 41//41 42//42 43//43 
f 43//43 44//44 41//41 
o mesh10
v -0.09 0.09 0.001 
v -0.09 -0.09 0.001 
v 0.09 -0.09 0.001 
v 0.09 0.09 0.001 
vn 0 0 1 
vn 0 0 1 
vn 0 0 1 
vn 0 0 1 
f 45//45 46//46 47//47 
f 47//47 48//48 45//45 
